<svg xmlns="http://www.w3.org/2000/svg" width="14.752" height="17.846" viewBox="0 0 14.752 17.846">
  <path id="Delete_Icon-SVG-09876789" d="M3.209,16.846A2.064,2.064,0,0,1,1.715,16.2a2.279,2.279,0,0,1-.609-1.58V5.186A1.629,1.629,0,0,1,1.63,2.013H3.467V1.679A1.681,1.681,0,0,1,5.139,0H8.593a1.678,1.678,0,0,1,1.684,1.68v.334h1.84a1.63,1.63,0,0,1,.527,3.172v9.437a2.277,2.277,0,0,1-.608,1.576,2.067,2.067,0,0,1-1.495.648ZM2.178,14.62a1.085,1.085,0,0,0,1.034,1.15h7.353a1.081,1.081,0,0,0,1-1.139V5.259H2.178ZM1.083,3.639a.551.551,0,0,0,.55.55H12.111a.55.55,0,1,0,0-1.1H1.633A.552.552,0,0,0,1.083,3.639Zm3.63-2.386a.591.591,0,0,0-.17.425v.337H9.2V1.68a.6.6,0,0,0-.6-.607H5.156A.614.614,0,0,0,4.712,1.253ZM9.182,13.729V7.091a.55.55,0,0,1,1.1,0v6.638a.55.55,0,1,1-1.1,0Zm-2.858,0V7.091a.55.55,0,0,1,1.1,0v6.638a.55.55,0,1,1-1.1,0Zm-2.79,0V7.091a.55.55,0,0,1,1.1,0v6.638a.55.55,0,1,1-1.1,0Z" transform="translate(0.5 0.5)" stroke="rgba(0,0,0,0)" stroke-miterlimit="10" stroke-width="1"/>
</svg>
