<?xml version="1.0" encoding="utf-8"?>
<!-- Generator: Adobe Illustrator 16.0.0, SVG Export Plug-In . SVG Version: 6.00 Build 0)  -->
<!DOCTYPE svg PUBLIC "-//W3C//DTD SVG 1.1//EN" "http://www.w3.org/Graphics/SVG/1.1/DTD/svg11.dtd">
<svg version="1.1" id="Layer_1" xmlns="http://www.w3.org/2000/svg" xmlns:xlink="http://www.w3.org/1999/xlink" x="0px" y="0px"
	 width="512px" height="512px" viewBox="0 0 512 512" enable-background="new 0 0 512 512" xml:space="preserve">
<path d="M128,0C57.313,0,0,57.313,0,128v384l0,0h32l32-32l32,32h32l32-32l32,32h32l32-32l32,32h32l32-32l32,32V128
	C384,57.313,441.313,0,512,0H128z M352,128v306.75L306.75,480h-5.5L256,434.719L210.75,480h-5.5L160,434.75L114.75,480h-5.5
	L64,434.75l-32,32V128c0-52.938,43.063-96,96-96h256.063C363.938,58.75,352,92,352,128z M64,320h160v32H64V320z M64,256h160v32H64
	V256z M64,192h160v32H64V192z M320,352h-32v-32h32V352z M320,288h-32v-32h32V288z M320,224h-32v-32h32V224z"/>
</svg>